<svg xmlns="http://www.w3.org/2000/svg" height="599pt" version="1.1" viewBox="0 0 599 599.99512" width="599pt">
<g id="surface1">
<path d="M 600.492188 449.996094 C 600.414062 390.394531 565.101562 336.484375 510.492188 312.609375 L 510.492188 159.996094 L 590.492188 159.996094 C 595.148438 159.992188 599.191406 156.769531 600.234375 152.226562 C 601.273438 147.6875 599.035156 143.027344 594.84375 140.996094 L 304.84375 0.996094 C 302.09375 -0.332031 298.890625 -0.332031 296.140625 0.996094 L 6.140625 140.996094 C 1.945312 143.027344 -0.289062 147.6875 0.75 152.226562 C 1.789062 156.769531 5.832031 159.992188 10.492188 159.996094 L 90.492188 159.996094 L 90.492188 589.996094 C 90.492188 595.519531 94.96875 599.996094 100.492188 599.996094 L 500.492188 599.996094 C 506.015625 599.996094 510.492188 595.519531 510.492188 589.996094 L 510.492188 587.382812 C 565.101562 563.507812 600.414062 509.59375 600.492188 449.996094 Z M 300.492188 21.09375 L 546.769531 139.996094 L 54.210938 139.996094 Z M 110.492188 579.996094 L 110.492188 159.996094 L 490.492188 159.996094 L 490.492188 305.578125 C 467.699219 299.132812 443.695312 298.257812 420.492188 303.011719 L 420.492188 199.996094 C 420.492188 194.472656 416.015625 189.996094 410.492188 189.996094 L 190.492188 189.996094 C 184.96875 189.996094 180.492188 194.472656 180.492188 199.996094 L 180.492188 399.996094 C 180.492188 405.519531 184.96875 409.996094 190.492188 409.996094 L 306.074219 409.996094 C 287.484375 475.996094 316.335938 546.167969 375.980469 579.996094 Z M 400.492188 289.996094 L 310.492188 289.996094 L 310.492188 209.996094 L 400.492188 209.996094 Z M 290.492188 289.996094 L 200.492188 289.996094 L 200.492188 209.996094 L 290.492188 209.996094 Z M 200.492188 309.996094 L 290.492188 309.996094 L 290.492188 389.996094 L 200.492188 389.996094 Z M 313.105469 389.996094 L 310.492188 389.996094 L 310.492188 309.996094 L 397.082031 309.996094 C 359.535156 324.386719 329.300781 353.1875 313.105469 389.996094 Z M 450.492188 579.996094 C 378.695312 579.996094 320.492188 521.792969 320.492188 449.996094 C 320.492188 378.199219 378.695312 319.996094 450.492188 319.996094 C 522.289062 319.996094 580.492188 378.199219 580.492188 449.996094 C 580.410156 521.757812 522.253906 579.914062 450.492188 579.996094 Z M 450.492188 579.996094 " style=" stroke:none;fill-rule:nonzero;fill:rgb(0%,0%,0%);fill-opacity:1;" />
<path d="M 460.492188 439.996094 L 460.492188 349.996094 L 440.492188 349.996094 L 440.492188 439.996094 L 350.492188 439.996094 L 350.492188 459.996094 L 440.492188 459.996094 L 440.492188 539.996094 L 460.492188 539.996094 L 460.492188 459.996094 L 550.492188 459.996094 L 550.492188 439.996094 Z M 460.492188 439.996094 " style=" stroke:none;fill-rule:nonzero;fill:rgb(0%,0%,0%);fill-opacity:1;" />
</g>
</svg>