<?xml version="1.0" encoding="iso-8859-1"?>
<!-- Generator: Adobe Illustrator 19.0.0, SVG Export Plug-In . SVG Version: 6.00 Build 0)  -->
<svg version="1.1" id="Layer_1" xmlns="http://www.w3.org/2000/svg" xmlns:xlink="http://www.w3.org/1999/xlink" x="0px" y="0px"
	 viewBox="0 0 480 480" style="enable-background:new 0 0 480 480;" xml:space="preserve">
<g>
	<g>
		<g>
			<path d="M261.096,290.076h-45.648c-15.971,0-28.964,12.997-28.964,28.972v3.833c0,15.975,12.993,28.972,28.964,28.972h45.648
				c15.972,0,28.965-12.997,28.965-28.972v-3.833C290.061,303.073,277.068,290.076,261.096,290.076z M270.061,322.881
				c0,4.947-4.021,8.972-8.965,8.972h-45.648c-4.942,0-8.964-4.025-8.964-8.972v-3.833c0-4.947,4.021-8.972,8.964-8.972h45.648
				c4.943,0,8.965,4.025,8.965,8.972V322.881z"/>
			<path d="M447.752,143.192c-0.322-0.326-0.666-0.63-1.029-0.909c-14.533-11.155-31.51-12.929-47.799-4.991
				c-2.609,1.271-4.988,2.69-7.133,4.131c-3.74-9.434-7.84-18.858-12.354-28.179c-16.241-33.536-35.23-60.214-56.441-79.294
				C297.953,11.423,270.337,0,240.918,0c-29.42,0-57.036,11.423-82.082,33.951c-21.212,19.079-40.202,45.757-56.443,79.293
				c-5.447,11.248-10.301,22.647-14.627,34.031C77.582,142.75,58,134,39,147c-3.69,2.525-18.582,15.158-18.291,31.316
				c0.334,18.458,14.728,38.132,42.768,58.487c-3.944,23.221-5.658,43.943-5.658,60.099C57.82,397.862,139.957,480,240.918,480
				c100.957,0,183.092-82.138,183.092-183.099c0-18.09-2.148-41.905-7.175-68.546c25.392-15.027,39.54-31.881,42.065-50.129
				C461.748,157.645,448.325,143.773,447.752,143.192z M40.719,178.367c-0.212-4.878,1.87-7.966,3.044-9.306
				C53,152,76.303,163.492,81.069,166.127c-5.517,16.671-9.924,33.11-13.345,48.783C45.047,196.769,40.983,184.417,40.719,178.367z
				 M240.918,460c-89.933,0-163.099-73.165-163.099-163.099C77.82,202.92,135.388,20,240.918,20
				c63.457,0,109.57,66.145,136.253,139.32C378,163,378,162,378.94,164.267c16.529,47.05,25.07,96.438,25.07,132.634
				C404.01,386.835,330.847,460,240.918,460z M439.052,175.743c-1.571,10.467-10.726,21.359-26.62,31.797
				c-3.538-15.087-7.983-30.787-13.441-46.649c6.707-5.748,24.01-14.891,34.858-3.263C438,163,440.461,166.354,439.052,175.743z"/>
			<path d="M195.59,255.019c0-8.123-6.612-14.732-14.739-14.732c-8.127,0-14.739,6.609-14.739,14.732s6.612,14.732,14.739,14.732
				C188.978,269.751,195.59,263.142,195.59,255.019z"/>
			<path d="M294.661,240.287c-8.132,0-14.747,6.609-14.747,14.732s6.615,14.732,14.747,14.732c8.131,0,14.746-6.609,14.746-14.732
				S302.791,240.287,294.661,240.287z"/>
			<path d="M295.739,215.041c-22.325,0-43.396,9.202-58.501,25.111c-15.121-15.91-36.192-25.111-58.506-25.111
				c-44.469,0-80.647,36.185-80.647,80.662c0,19.313,6.959,37.969,19.596,52.532c10.917,12.581,25.476,21.467,41.543,25.478
				c4.005,16.062,12.89,30.615,25.473,41.526c14.563,12.629,33.225,19.585,52.547,19.585c19.31,0,37.964-6.956,52.526-19.585
				c12.583-10.914,21.469-25.465,25.477-41.526c16.063-4.011,30.619-12.897,41.537-25.477
				c12.641-14.565,19.603-33.221,19.603-52.532C376.385,251.226,340.207,215.041,295.739,215.041z M237.242,414.824
				c-16.001,0-30.624-6.169-41.481-16.443c13.786-7.098,44.124-17.491,80.454,2.23C265.663,409.541,252.043,414.824,237.242,414.824
				z M305.208,355.365c-4.278,0.678-7.635,4.035-8.311,8.314c-1.227,7.753-3.861,14.942-7.602,21.344
				c-31.392-18.343-59.467-17.575-77.998-13.391c-11.966,2.701-21.465,7.109-27.671,10.589c-2.923-5.673-5.004-11.9-6.053-18.539
				c-0.677-4.28-4.033-7.638-8.313-8.316c-29.653-4.697-51.176-29.788-51.176-59.662c0-33.449,27.206-60.662,60.647-60.662
				c20.12,0,38.902,9.952,50.242,26.621c1.862,2.737,4.958,4.376,8.269,4.376c0.001,0,0.003,0,0.003,0
				c3.313-0.001,6.409-1.642,8.269-4.382c11.317-16.665,30.092-26.614,50.224-26.614c33.44,0,60.646,27.213,60.646,60.662
				C356.385,325.575,334.863,350.667,305.208,355.365z"/>
		</g>
	</g>
</g>
<g>
</g>
<g>
</g>
<g>
</g>
<g>
</g>
<g>
</g>
<g>
</g>
<g>
</g>
<g>
</g>
<g>
</g>
<g>
</g>
<g>
</g>
<g>
</g>
<g>
</g>
<g>
</g>
<g>
</g>
</svg>
