<?xml version="1.0" standalone="no"?>
<!DOCTYPE svg PUBLIC "-//W3C//DTD SVG 20010904//EN"
 "http://www.w3.org/TR/2001/REC-SVG-20010904/DTD/svg10.dtd">
<svg version="1.0" xmlns="http://www.w3.org/2000/svg"
 width="794.000000pt" height="512.000000pt" viewBox="0 0 794.000000 512.000000"
 preserveAspectRatio="xMidYMid meet">
<metadata>
Created by potrace 1.15, written by Peter Selinger 2001-2017
</metadata>
<g transform="translate(0.000000,512.000000) scale(0.100000,-0.100000)"
fill="#000000" stroke="none">
<path d="M2977 4833 l-58 -60 123 -6 c368 -20 663 -127 963 -351 312 -234 549
-522 979 -1193 54 -84 101 -153 105 -153 4 0 17 10 29 23 l21 22 -137 215
c-336 525 -493 737 -717 969 -347 360 -745 562 -1160 587 l-90 6 -58 -59z"/>
<path d="M4914 4763 c-132 -109 -261 -205 -429 -318 -88 -60 -162 -110 -164
-112 -3 -2 7 -16 22 -30 l26 -27 178 119 c98 65 205 138 238 163 120 91 275
216 275 221 0 3 -15 16 -33 27 l-33 22 -80 -65z"/>
<path d="M5680 4220 c-1 -88 -27 -264 -54 -363 -95 -345 -282 -635 -596 -926
-203 -186 -491 -395 -953 -689 l-98 -62 21 -30 21 -30 42 27 c171 107 483 310
587 381 306 209 547 416 725 624 224 261 347 514 410 845 25 132 23 141 -45
214 l-59 64 -1 -55z"/>
<path d="M4040 4157 c-320 -205 -634 -419 -760 -515 -170 -132 -384 -331 -487
-455 -251 -302 -392 -636 -418 -992 l-7 -90 66 -65 66 -64 0 119 c0 426 180
841 517 1196 213 223 565 488 1093 822 l92 58 -23 25 c-12 13 -27 24 -33 23
-6 0 -54 -28 -106 -62z"/>
<path d="M2418 4163 l-25 -38 39 -45 c119 -134 307 -384 447 -593 l53 -79 24
23 c13 12 24 26 24 31 0 13 -211 325 -314 463 -74 100 -148 192 -211 263 -9
10 -17 5 -37 -25z"/>
<path d="M3062 3257 l-22 -23 128 -200 c284 -441 404 -613 556 -793 39 -46 87
-103 106 -126 66 -81 277 -266 405 -356 227 -160 503 -263 785 -294 l55 -6 64
59 65 58 -135 12 c-336 30 -619 140 -894 346 -91 69 -248 207 -285 251 -14 16
-51 58 -82 93 -158 175 -303 374 -542 742 -93 143 -172 260 -176 260 -3 0 -16
-10 -28 -23z"/>
<path d="M5217 2917 l-27 -22 129 -192 c123 -182 270 -382 344 -468 l34 -40
21 41 21 41 -61 74 c-93 114 -246 321 -342 462 -48 70 -88 127 -89 127 -1 0
-14 -10 -30 -23z"/>
<path d="M3615 1944 c-104 -69 -225 -153 -269 -187 -105 -79 -276 -220 -276
-227 0 -3 17 -15 37 -26 l37 -21 90 76 c131 111 238 192 436 330 96 67 176
126 178 130 1 4 -8 17 -21 29 l-24 23 -188 -127z"/>
<path d="M3312 952 c-209 -75 -327 -286 -293 -526 22 -158 111 -286 249 -353
53 -26 65 -28 182 -28 121 0 128 1 191 32 281 139 345 548 120 772 -31 31 -83
69 -116 86 -54 26 -72 29 -170 32 -88 3 -121 0 -163 -15z m258 -65 c58 -30
102 -88 132 -174 20 -59 23 -87 23 -213 0 -215 -36 -304 -150 -375 -42 -26
-58 -30 -119 -30 -91 0 -151 32 -201 108 -95 143 -101 439 -12 588 35 58 95
106 148 120 51 12 128 2 179 -24z"/>
<path d="M6891 956 c-92 -33 -153 -122 -153 -223 0 -116 49 -169 272 -298 178
-102 225 -165 185 -249 -46 -96 -176 -118 -293 -50 -52 31 -87 81 -105 154
-11 43 -19 56 -36 58 -21 3 -21 1 -21 -152 0 -141 2 -156 17 -156 10 0 26 11
38 24 l20 24 79 -24 c187 -57 342 -17 414 105 23 38 27 58 27 116 -1 127 -40
172 -259 295 -202 114 -248 168 -209 247 26 54 74 83 137 83 115 -1 206 -85
230 -212 5 -29 12 -38 26 -38 19 0 20 8 20 155 0 136 -2 155 -16 155 -9 0 -25
-11 -35 -24 l-19 -24 -67 24 c-76 27 -193 31 -252 10z"/>
<path d="M920 935 c0 -10 10 -15 34 -15 19 0 45 -9 60 -21 l26 -20 0 -370 0
-370 -25 -24 c-16 -17 -35 -25 -60 -25 -24 0 -35 -4 -35 -15 0 -13 28 -15 195
-15 167 0 195 2 195 15 0 10 -10 15 -30 15 -49 0 -79 20 -90 59 -12 45 -13
651 -1 704 11 48 35 66 84 67 26 0 37 4 37 15 0 13 -28 15 -195 15 -167 0
-195 -2 -195 -15z"/>
<path d="M1640 935 c0 -10 10 -15 30 -15 40 0 102 -32 129 -67 21 -26 22 -32
19 -376 l-3 -349 -24 -19 c-14 -11 -39 -19 -62 -19 -28 0 -39 -4 -39 -15 0
-13 25 -15 165 -15 140 0 165 2 165 15 0 11 -11 15 -39 15 -23 0 -48 8 -62 19
l-24 19 -3 308 -3 308 101 -125 c55 -68 183 -226 283 -351 136 -170 188 -227
204 -227 l22 -1 3 421 3 421 24 19 c14 11 39 19 62 19 28 0 39 4 39 15 0 13
-25 15 -165 15 -140 0 -165 -2 -165 -15 0 -11 11 -15 39 -15 23 0 48 -8 62
-19 24 -19 24 -22 27 -243 2 -122 2 -252 0 -286 l-3 -64 -260 321 -260 321
-132 0 c-112 0 -133 -2 -133 -15z"/>
<path d="M4316 898 c-3 -29 -6 -77 -6 -105 0 -44 3 -53 18 -53 13 0 21 13 29
43 7 23 25 55 43 72 29 28 37 30 121 33 l89 4 0 -380 0 -381 -26 -20 c-15 -12
-41 -21 -60 -21 -24 0 -34 -5 -34 -15 0 -13 28 -15 195 -15 167 0 195 2 195
15 0 11 -11 15 -38 15 -25 0 -46 7 -60 20 -22 21 -22 23 -22 400 l0 380 75 0
c117 0 163 -27 186 -112 7 -29 15 -38 31 -38 19 0 20 4 14 46 -3 26 -6 73 -6
105 l0 59 -369 0 -368 0 -7 -52z"/>
<path d="M5450 935 c0 -11 11 -15 35 -15 25 0 44 -8 60 -25 l25 -24 0 -366 0
-366 -25 -24 c-16 -17 -35 -25 -60 -25 -24 0 -35 -4 -35 -15 0 -13 28 -15 195
-15 167 0 195 2 195 15 0 11 -11 15 -36 15 -81 0 -94 32 -94 243 l0 147 40 0
40 0 147 -209 148 -210 128 0 c98 -1 127 2 127 12 0 7 -21 19 -48 26 -72 18
-110 56 -238 234 l-115 162 43 15 c115 40 161 97 166 204 3 85 -18 131 -85
182 -61 46 -114 54 -378 54 -202 0 -235 -2 -235 -15z m399 -46 c60 -13 100
-44 122 -93 34 -75 20 -154 -37 -208 -39 -36 -86 -54 -162 -63 l-62 -7 2 183
3 184 40 6 c22 3 42 7 45 7 3 1 25 -3 49 -9z"/>
</g>
</svg>
